<?xml version="1.0" encoding="utf-8"?><!-- Uploaded to: SVG Repo, www.svgrepo.com, Generator: SVG Repo Mixer Tools -->
<svg width="800px" height="800px" viewBox="0 0 24 24" fill="none" xmlns="http://www.w3.org/2000/svg">
<path d="M17 21C17 21.5523 17.4477 22 18 22C18.5523 22 19 21.5523 19 21V3C19 2.44772 18.5523 2 18 2C17.4477 2 17 2.44772 17 3V21Z" fill="#fefefe"/>
<path d="M13 21C13 21.5523 13.4477 22 14 22C14.5523 22 15 21.5523 15 21V7C15 6.44772 14.5523 6 14 6C13.4477 6 13 6.44772 13 7V21Z" fill="#fefefe"/>
<path d="M5 21C5 21.5523 5.44772 22 6 22C6.55228 22 7 21.5523 7 21V15C7 14.4477 6.55228 14 6 14C5.44772 14 5 14.4477 5 15V21Z" fill="#fefefe"/>
<path d="M10 22C9.44772 22 9 21.5523 9 21V11C9 10.4477 9.44772 10 10 10C10.5523 10 11 10.4477 11 11V21C11 21.5523 10.5523 22 10 22Z" fill="#fefefe"/>
</svg>